<svg xmlns="http://www.w3.org/2000/svg" viewBox="0 0 800 800"><path fill="#36a9e1" d="M468.39 516.5l-1-.52-48.14-26.16L464 364.22 351.61 516l49.3 26.83-44.5 125z"/><path d="M640 482.43a253.13 253.13 0 01-2.88 39.06c-1 6.35-2.17 12.58-3.6 18.68A222.59 222.59 0 01622 575.75a228.37 228.37 0 01-28.24 48.75 260.29 260.29 0 01-24.25 27.85q-51.3 51.31-117.68 65.12a44.07 44.07 0 01-.46-6.68c0-1.43 0-2.95.13-4.45 1.75-26.8 18.53-60.61 33.08-85.12a11.72 11.72 0 00.73-1.17c9.17-14.75 17.49-26.22 21.23-31.38a2.75 2.75 0 01.19-.28c22.1-30.79 40.64-59.43 43.45-96 .26-3.29.31-6.63.31-10q0-62-44-106.4c-29.42-29.43-64.93-44.3-106.54-44.3S322.84 346.6 293.48 376q-44 44.43-44.09 106.4c0 41.54 19.91 72.61 44.09 106.23 10.75 14.94 60.35 82.82 54.72 129q-66.74-13.85-118.09-65.26a258.67 258.67 0 01-24.05-27.79Q160 563 160 482.43V106.37l87.22-58.06v248.36Q312.31 242 399.9 242q99.18 0 169.59 70.44 70.57 70.42 70.51 169.99z"/><path d="M445.29 715.79a58.19 58.19 0 01-.52-7.67c0-1.26 0-2.56.13-3.94a229 229 0 01-89.71 2 64.9 64.9 0 01-.46 9.57l-.46 3.6a243.51 243.51 0 0091.29-1.9zM397 690.17a207.29 207.29 0 01-44.5-4.79 92 92 0 012.36 13.82 220.94 220.94 0 0090.62-1.32 105 105 0 012.77-14.08 209.47 209.47 0 01-51.25 6.37z"/><path d="M397 670.51a188 188 0 01-51.38-7.14 143.58 143.58 0 015.05 14.87 202.41 202.41 0 0099.6-1.77q2.36-7.68 5.5-15.33a187.55 187.55 0 01-58.77 9.37zM430.18 727.3a31 31 0 01-60.29 1.19 228 228 0 0025 1.37 237.85 237.85 0 0035.29-2.56z"/></svg>